<svg xmlns="http://www.w3.org/2000/svg" xmlns:xlink="http://www.w3.org/1999/xlink" width="1075pt" height="614pt" viewBox="0 0 1075 614"><g id="graph0" class="graph" transform="scale(1 1) rotate(0) translate(4 610)"><title>CMakeDeps</title><polygon fill="#fff" stroke="transparent" points="-4 4 -4 -610 1071 -610 1071 4 -4 4"/><g id="clust1" class="cluster"><title>clusterZLIB</title><polygon fill="none" stroke="#4169e1" points="250 -171 250 -246 482 -246 482 -171 250 -171"/><text x="366" y="-230.8" font-family="Times,serif" font-size="14" text-anchor="middle">madler/zlib.git + cmake patch</text></g><g id="clust2" class="cluster"><title>clusterAbsl</title><polygon fill="none" stroke="#4169e1" points="83 -171 83 -246 242 -246 242 -171 83 -171"/><text x="162.5" y="-230.8" font-family="Times,serif" font-size="14" text-anchor="middle">abseil/abseil-cpp.git</text></g><g id="clust3" class="cluster"><title>clusterGFlags</title><polygon fill="none" stroke="#4169e1" points="924 -492 924 -567 1055 -567 1055 -492 924 -492"/><text x="989.5" y="-551.8" font-family="Times,serif" font-size="14" text-anchor="middle">gflags/gflags.git</text></g><g id="clust4" class="cluster"><title>clusterGLog</title><polygon fill="none" stroke="#4169e1" points="936 -409 936 -484 1059 -484 1059 -409 936 -409"/><text x="997.5" y="-468.8" font-family="Times,serif" font-size="14" text-anchor="middle">google/glog.git</text></g><g id="clust5" class="cluster"><title>clusterProtobuf</title><polygon fill="none" stroke="#4169e1" points="8 -88 8 -163 342 -163 342 -88 8 -88"/><text x="175" y="-147.8" font-family="Times,serif" font-size="14" text-anchor="middle">protocolbuffers/protobuf.git</text></g><g id="clust6" class="cluster"><title>clusterCoinOR</title><polygon fill="none" stroke="#4169e1" points="490 -8 490 -598 916 -598 916 -8 490 -8"/><text x="703" y="-582.8" font-family="Times,serif" font-size="14" text-anchor="middle">-DUSE_COINOR=ON AND -DBUILD_DEPS=ON</text></g><g id="clust7" class="cluster"><title>clusterCoinUtils</title><polygon fill="none" stroke="#4169e1" points="741 -492 741 -567 883 -567 883 -492 741 -492"/><text x="812" y="-551.8" font-family="Times,serif" font-size="14" text-anchor="middle">CoinUtils.git</text></g><g id="clust8" class="cluster"><title>clusterOsi</title><polygon fill="none" stroke="#4169e1" points="738 -409 738 -484 836 -484 836 -409 738 -409"/><text x="787" y="-468.8" font-family="Times,serif" font-size="14" text-anchor="middle">Osi.git</text></g><g id="clust9" class="cluster"><title>clusterClp</title><polygon fill="none" stroke="#4169e1" points="550 -254 550 -401 818 -401 818 -254 550 -254"/><text x="684" y="-385.8" font-family="Times,serif" font-size="14" text-anchor="middle">Clp.git</text></g><g id="clust10" class="cluster"><title>clusterCgl</title><polygon fill="none" stroke="#4169e1" points="733 -171 733 -246 831 -246 831 -171 733 -171"/><text x="782" y="-230.8" font-family="Times,serif" font-size="14" text-anchor="middle">Cgl.git</text></g><g id="clust11" class="cluster"><title>clusterCbc</title><polygon fill="none" stroke="#4169e1" points="498 -16 498 -163 772 -163 772 -16 498 -16"/><text x="635" y="-147.8" font-family="Times,serif" font-size="14" text-anchor="middle">Cbc.git</text></g><g id="node1" class="node"><title>ZLIB</title><path fill="#4169e1" stroke="#4169e1" d="M351.5,-215C351.5,-215 280.5,-215 280.5,-215 274.5,-215 268.5,-209 268.5,-203 268.5,-203 268.5,-191 268.5,-191 268.5,-185 274.5,-179 280.5,-179 280.5,-179 351.5,-179 351.5,-179 357.5,-179 363.5,-185 363.5,-191 363.5,-191 363.5,-203 363.5,-203 363.5,-209 357.5,-215 351.5,-215"/><text x="316" y="-193.3" font-family="Times,serif" font-size="14" text-anchor="middle">ZLIB::ZLIB</text></g><g id="node5" class="node"><title>Protobuf</title><path fill="#4169e1" stroke="#4169e1" d="M322.5,-132C322.5,-132 179.5,-132 179.5,-132 173.5,-132 167.5,-126 167.5,-120 167.5,-120 167.5,-108 167.5,-108 167.5,-102 173.5,-96 179.5,-96 179.5,-96 322.5,-96 322.5,-96 328.5,-96 334.5,-102 334.5,-108 334.5,-108 334.5,-120 334.5,-120 334.5,-126 328.5,-132 322.5,-132"/><text x="251" y="-110.3" font-family="Times,serif" font-size="14" text-anchor="middle">protobuf::libprotobuf</text></g><g id="edge19" class="edge"><title>ZLIB-&gt;Protobuf</title><path fill="none" stroke="#000" d="M302.22,-178.82C293.17,-167.55 281.18,-152.61 271.08,-140.02"/><polygon fill="#000" stroke="#000" points="273.75 -137.76 264.76 -132.15 268.29 -142.14 273.75 -137.76"/></g><g id="node13" class="node"><title>Cbc</title><path fill="#4169e1" stroke="#4169e1" d="M579.5,-132C579.5,-132 518.5,-132 518.5,-132 512.5,-132 506.5,-126 506.5,-120 506.5,-120 506.5,-108 506.5,-108 506.5,-102 512.5,-96 518.5,-96 518.5,-96 579.5,-96 579.5,-96 585.5,-96 591.5,-102 591.5,-108 591.5,-108 591.5,-120 591.5,-120 591.5,-126 585.5,-132 579.5,-132"/><text x="549" y="-110.3" font-family="Times,serif" font-size="14" text-anchor="middle">Coin::Cbc</text></g><g id="edge20" class="edge"><title>ZLIB-&gt;Cbc</title><path fill="none" stroke="#000" d="M363.71,-179.41C402.46,-165.94 457.02,-146.98 496.9,-133.11"/><polygon fill="#000" stroke="#000" points="498.15 -136.38 506.44 -129.79 495.85 -129.77 498.15 -136.38"/></g><g id="node2" class="node"><title>Absl</title><path fill="#4169e1" stroke="#4169e1" d="M222,-215C222,-215 148,-215 148,-215 142,-215 136,-209 136,-203 136,-203 136,-191 136,-191 136,-185 142,-179 148,-179 148,-179 222,-179 222,-179 228,-179 234,-185 234,-191 234,-191 234,-203 234,-203 234,-209 228,-215 222,-215"/><text x="185" y="-193.3" font-family="Times,serif" font-size="14" text-anchor="middle">absl::absl_*</text></g><g id="edge21" class="edge"><title>Absl-&gt;Protobuf</title><path fill="none" stroke="#000" d="M199,-178.82C208.18,-167.55 220.35,-152.61 230.61,-140.02"/><polygon fill="#000" stroke="#000" points="233.42 -142.12 237.02 -132.15 227.99 -137.69 233.42 -142.12"/></g><g id="node3" class="node"><title>GFlags</title><path fill="#4169e1" stroke="#4169e1" d="M1032.5,-536C1032.5,-536 945.5,-536 945.5,-536 939.5,-536 933.5,-530 933.5,-524 933.5,-524 933.5,-512 933.5,-512 933.5,-506 939.5,-500 945.5,-500 945.5,-500 1032.5,-500 1032.5,-500 1038.5,-500 1044.5,-506 1044.5,-512 1044.5,-512 1044.5,-524 1044.5,-524 1044.5,-530 1038.5,-536 1032.5,-536"/><text x="989" y="-514.3" font-family="Times,serif" font-size="14" text-anchor="middle">gflags::gflags</text></g><g id="node4" class="node"><title>GLog</title><path fill="#4169e1" stroke="#4169e1" d="M1020.5,-453C1020.5,-453 957.5,-453 957.5,-453 951.5,-453 945.5,-447 945.5,-441 945.5,-441 945.5,-429 945.5,-429 945.5,-423 951.5,-417 957.5,-417 957.5,-417 1020.5,-417 1020.5,-417 1026.5,-417 1032.5,-423 1032.5,-429 1032.5,-429 1032.5,-441 1032.5,-441 1032.5,-447 1026.5,-453 1020.5,-453"/><text x="989" y="-431.3" font-family="Times,serif" font-size="14" text-anchor="middle">glog::glog</text></g><g id="edge22" class="edge"><title>GFlags-&gt;GLog</title><path fill="none" stroke="#000" d="M989,-499.82C989,-489.19 989,-475.31 989,-463.2"/><polygon fill="#000" stroke="#000" points="992.5 -463.15 989 -453.15 985.5 -463.15 992.5 -463.15"/></g><g id="node6" class="node"><title>Protoc</title><polygon fill="#4169e1" stroke="#4169e1" points="149.5 -132 16.5 -132 16.5 -128 12.5 -128 12.5 -124 16.5 -124 16.5 -104 12.5 -104 12.5 -100 16.5 -100 16.5 -96 149.5 -96 149.5 -132"/><polyline fill="none" stroke="#4169e1" points="16.5 -128 20.5 -128 20.5 -124 16.5 -124"/><polyline fill="none" stroke="#4169e1" points="16.5 -104 20.5 -104 20.5 -100 16.5 -100"/><text x="83" y="-110.3" font-family="Times,serif" font-size="14" text-anchor="middle">protobuf::protoc</text></g><g id="node7" class="node"><title>CoinUtils</title><path fill="#4169e1" stroke="#4169e1" d="M862.5,-536C862.5,-536 761.5,-536 761.5,-536 755.5,-536 749.5,-530 749.5,-524 749.5,-524 749.5,-512 749.5,-512 749.5,-506 755.5,-500 761.5,-500 761.5,-500 862.5,-500 862.5,-500 868.5,-500 874.5,-506 874.5,-512 874.5,-512 874.5,-524 874.5,-524 874.5,-530 868.5,-536 862.5,-536"/><text x="812" y="-514.3" font-family="Times,serif" font-size="14" text-anchor="middle">Coin::CoinUtils</text></g><g id="node8" class="node"><title>Osi</title><path fill="#4169e1" stroke="#4169e1" d="M815.5,-453C815.5,-453 758.5,-453 758.5,-453 752.5,-453 746.5,-447 746.5,-441 746.5,-441 746.5,-429 746.5,-429 746.5,-423 752.5,-417 758.5,-417 758.5,-417 815.5,-417 815.5,-417 821.5,-417 827.5,-423 827.5,-429 827.5,-429 827.5,-441 827.5,-441 827.5,-447 821.5,-453 815.5,-453"/><text x="787" y="-431.3" font-family="Times,serif" font-size="14" text-anchor="middle">Coin::Osi</text></g><g id="edge1" class="edge"><title>CoinUtils-&gt;Osi</title><path fill="none" stroke="#000" d="M806.7,-499.82C803.38,-489.08 799.04,-475.03 795.28,-462.84"/><polygon fill="#000" stroke="#000" points="798.59 -461.68 792.29 -453.15 791.9 -463.74 798.59 -461.68"/></g><g id="node9" class="node"><title>Clp</title><path fill="#4169e1" stroke="#4169e1" d="M756,-370C756,-370 698,-370 698,-370 692,-370 686,-364 686,-358 686,-358 686,-346 686,-346 686,-340 692,-334 698,-334 698,-334 756,-334 756,-334 762,-334 768,-340 768,-346 768,-346 768,-358 768,-358 768,-364 762,-370 756,-370"/><text x="727" y="-348.3" font-family="Times,serif" font-size="14" text-anchor="middle">Coin::Clp</text></g><g id="edge2" class="edge"><title>CoinUtils-&gt;Clp</title><path fill="none" stroke="#000" d="M751.47,-499.92C744.67,-495.72 738.56,-490.5 734,-484 712.65,-453.58 715.67,-408.73 720.67,-380.19"/><polygon fill="#000" stroke="#000" points="724.16 -380.6 722.64 -370.12 717.29 -379.26 724.16 -380.6"/></g><g id="node10" class="node"><title>OsiClp</title><path fill="#4169e1" stroke="#4169e1" d="M797.5,-298C797.5,-298 716.5,-298 716.5,-298 710.5,-298 704.5,-292 704.5,-286 704.5,-286 704.5,-274 704.5,-274 704.5,-268 710.5,-262 716.5,-262 716.5,-262 797.5,-262 797.5,-262 803.5,-262 809.5,-268 809.5,-274 809.5,-274 809.5,-286 809.5,-286 809.5,-292 803.5,-298 797.5,-298"/><text x="757" y="-276.3" font-family="Times,serif" font-size="14" text-anchor="middle">Coin::OsiClp</text></g><g id="edge4" class="edge"><title>CoinUtils-&gt;OsiClp</title><path fill="none" stroke="#000" d="M830.57,-499.65C834.42,-494.98 837.93,-489.64 840,-484 851.49,-452.71 849.46,-440.96 840,-409 828.25,-369.3 799.9,-330.35 779.61,-306.05"/><polygon fill="#000" stroke="#000" points="782.22 -303.72 773.07 -298.38 776.9 -308.26 782.22 -303.72"/></g><g id="node12" class="node"><title>Cgl</title><path fill="#4169e1" stroke="#4169e1" d="M811,-215C811,-215 753,-215 753,-215 747,-215 741,-209 741,-203 741,-203 741,-191 741,-191 741,-185 747,-179 753,-179 753,-179 811,-179 811,-179 817,-179 823,-185 823,-191 823,-191 823,-203 823,-203 823,-209 817,-215 811,-215"/><text x="782" y="-193.3" font-family="Times,serif" font-size="14" text-anchor="middle">Coin::Cgl</text></g><g id="edge8" class="edge"><title>CoinUtils-&gt;Cgl</title><path fill="none" stroke="#000" d="M836.52,-499.75C841.18,-495.2 845.41,-489.9 848,-484 865.43,-444.39 845.97,-283.24 833,-254 827.79,-242.26 819.14,-231.33 810.42,-222.3"/><polygon fill="#000" stroke="#000" points="812.75 -219.68 803.16 -215.18 807.85 -224.68 812.75 -219.68"/></g><g id="edge11" class="edge"><title>CoinUtils-&gt;Cbc</title><path fill="none" stroke="#000" d="M749.41,-511.89C658.07,-500.64 499,-464.96 499,-353 499,-353 499,-353 499,-279 499,-230.65 495.34,-216.38 512,-171 515.96,-160.22 522.35,-149.45 528.71,-140.27"/><polygon fill="#000" stroke="#000" points="531.67 -142.15 534.73 -132.01 526.01 -138.03 531.67 -142.15"/></g><g id="node14" class="node"><title>OsiCbc</title><path fill="#4169e1" stroke="#4169e1" d="M752,-60C752,-60 668,-60 668,-60 662,-60 656,-54 656,-48 656,-48 656,-36 656,-36 656,-30 662,-24 668,-24 668,-24 752,-24 752,-24 758,-24 764,-30 764,-36 764,-36 764,-48 764,-48 764,-54 758,-60 752,-60"/><text x="710" y="-38.3" font-family="Times,serif" font-size="14" text-anchor="middle">Coin::OsiCbc</text></g><g id="edge15" class="edge"><title>CoinUtils-&gt;OsiCbc</title><path fill="none" stroke="#000" d="M839.7,-499.93C845.65,-495.31 851.5,-489.93 856,-484 893.78,-434.23 907,-415.48 907,-353 907,-353 907,-353 907,-196 907,-138.06 879.69,-123.63 834,-88 816.46,-74.32 794.38,-64.55 773.73,-57.68"/><polygon fill="#000" stroke="#000" points="774.64 -54.3 764.05 -54.63 772.54 -60.97 774.64 -54.3"/></g><g id="edge3" class="edge"><title>Osi-&gt;Clp</title><path fill="none" stroke="#000" d="M774.28,-416.82C766,-405.65 755.07,-390.9 745.8,-378.38"/><polygon fill="#000" stroke="#000" points="748.47 -376.11 739.71 -370.15 742.85 -380.27 748.47 -376.11"/></g><g id="edge5" class="edge"><title>Osi-&gt;OsiClp</title><path fill="none" stroke="#000" d="M786.64,-416.79C785.91,-396.69 783.69,-362.54 777,-334 774.96,-325.29 771.84,-316.07 768.67,-307.81"/><polygon fill="#000" stroke="#000" points="771.83 -306.28 764.85 -298.31 765.33 -308.89 771.83 -306.28"/></g><g id="edge9" class="edge"><title>Osi-&gt;Cgl</title><path fill="none" stroke="#000" d="M810.49,-417C815.16,-412.38 819.42,-406.98 822,-401 847.89,-341.01 841.94,-316.22 822,-254 818.43,-242.85 811.73,-232.03 804.82,-222.92"/><polygon fill="#000" stroke="#000" points="807.5 -220.67 798.5 -215.08 802.05 -225.06 807.5 -220.67"/></g><g id="edge12" class="edge"><title>Osi-&gt;Cbc</title><path fill="none" stroke="#000" d="M746.2,-433.99C685.09,-433.08 573.95,-427.68 546,-401 508.86,-365.54 513.3,-221.22 524,-171 526.17,-160.8 530.35,-150.2 534.67,-141.01"/><polygon fill="#000" stroke="#000" points="537.82 -142.52 539.15 -132.01 531.56 -139.4 537.82 -142.52"/></g><g id="edge16" class="edge"><title>Osi-&gt;OsiCbc</title><path fill="none" stroke="#000" d="M818.74,-416.95C824.85,-412.45 830.69,-407.11 835,-401 866.83,-355.9 867,-336.2 867,-281 867,-281 867,-281 867,-196 867,-134.27 803.98,-89.35 757.8,-64.71"/><polygon fill="#000" stroke="#000" points="759.3 -61.55 748.81 -60.06 756.08 -67.76 759.3 -61.55"/></g><g id="edge6" class="edge"><title>Clp-&gt;OsiClp</title><path fill="none" stroke="#000" d="M734.42,-333.7C737.79,-325.81 741.87,-316.3 745.62,-307.55"/><polygon fill="#000" stroke="#000" points="748.95 -308.67 749.67 -298.1 742.51 -305.92 748.95 -308.67"/></g><g id="node11" class="node"><title>ClpSolver</title><path fill="#4169e1" stroke="#4169e1" d="M674,-298C674,-298 570,-298 570,-298 564,-298 558,-292 558,-286 558,-286 558,-274 558,-274 558,-268 564,-262 570,-262 570,-262 674,-262 674,-262 680,-262 686,-268 686,-274 686,-274 686,-286 686,-286 686,-292 680,-298 674,-298"/><text x="622" y="-276.3" font-family="Times,serif" font-size="14" text-anchor="middle">Coin::ClpSolver</text></g><g id="edge7" class="edge"><title>Clp-&gt;ClpSolver</title><path fill="none" stroke="#000" d="M701.31,-333.88C687.71,-324.81 670.83,-313.55 656.14,-303.76"/><polygon fill="#000" stroke="#000" points="658.05 -300.82 647.78 -298.19 654.16 -306.65 658.05 -300.82"/></g><g id="edge13" class="edge"><title>Clp-&gt;Cbc</title><path fill="none" stroke="#000" d="M685.78,-344.51C638.5,-336.13 565.38,-319.97 549,-298 514.98,-252.37 528.57,-180.98 539.8,-142.23"/><polygon fill="#000" stroke="#000" points="543.29 -142.81 542.87 -132.22 536.59 -140.76 543.29 -142.81"/></g><g id="edge10" class="edge"><title>OsiClp-&gt;Cgl</title><path fill="none" stroke="#000" d="M762.3,-261.82C765.62,-251.08 769.96,-237.03 773.72,-224.84"/><polygon fill="#000" stroke="#000" points="777.1 -225.74 776.71 -215.15 770.41 -223.68 777.1 -225.74"/></g><g id="edge14" class="edge"><title>Cgl-&gt;Cbc</title><path fill="none" stroke="#000" d="M740.88,-181.71C701.97,-168.18 643.41,-147.82 601.22,-133.15"/><polygon fill="#000" stroke="#000" points="602.27 -129.81 591.68 -129.84 599.97 -136.43 602.27 -129.81"/></g><g id="edge17" class="edge"><title>Cbc-&gt;OsiCbc</title><path fill="none" stroke="#000" d="M588.39,-95.88C610.39,-86.31 638.01,-74.3 661.36,-64.15"/><polygon fill="#000" stroke="#000" points="662.97 -67.27 670.74 -60.07 660.18 -60.85 662.97 -67.27"/></g><g id="node15" class="node"><title>CbcSolver</title><path fill="#4169e1" stroke="#4169e1" d="M625.5,-60C625.5,-60 518.5,-60 518.5,-60 512.5,-60 506.5,-54 506.5,-48 506.5,-48 506.5,-36 506.5,-36 506.5,-30 512.5,-24 518.5,-24 518.5,-24 625.5,-24 625.5,-24 631.5,-24 637.5,-30 637.5,-36 637.5,-36 637.5,-48 637.5,-48 637.5,-54 631.5,-60 625.5,-60"/><text x="572" y="-38.3" font-family="Times,serif" font-size="14" text-anchor="middle">Coin::CbcSolver</text></g><g id="edge18" class="edge"><title>Cbc-&gt;CbcSolver</title><path fill="none" stroke="#000" d="M554.69,-95.7C557.25,-87.9 560.33,-78.51 563.18,-69.83"/><polygon fill="#000" stroke="#000" points="566.58 -70.7 566.38 -60.1 559.93 -68.51 566.58 -70.7"/></g></g></svg>