<svg xmlns="http://www.w3.org/2000/svg" xmlns:xlink="http://www.w3.org/1999/xlink" width="1022.667" height="750.667" version="1.1" viewBox="-55.333 -55.333 1022.667 750.667"><defs><marker id="arrow_blue" markerHeight="5" markerUnits="strokeWidth" markerWidth="5" orient="auto" refX="8" refY="8" viewBox="0 0 16 16"><path fill="#4285F4" stroke="none" d="M 0 0 L 16 8 L 0 16 z"/></marker><marker id="arrow_red" markerHeight="5" markerUnits="strokeWidth" markerWidth="5" orient="auto" refX="8" refY="8" viewBox="0 0 16 16"><path fill="#EA4335" stroke="none" d="M 0 0 L 16 8 L 0 16 z"/></marker><marker id="arrow_yellow" markerHeight="5" markerUnits="strokeWidth" markerWidth="5" orient="auto" refX="8" refY="8" viewBox="0 0 16 16"><path fill="#FBBC05" stroke="none" d="M 0 0 L 16 8 L 0 16 z"/></marker><marker id="arrow_green" markerHeight="5" markerUnits="strokeWidth" markerWidth="5" orient="auto" refX="8" refY="8" viewBox="0 0 16 16"><path fill="#34A853" stroke="none" d="M 0 0 L 16 8 L 0 16 z"/></marker><marker id="arrow_black" markerHeight="5" markerUnits="strokeWidth" markerWidth="5" orient="auto" refX="8" refY="8" viewBox="0 0 16 16"><path fill="#101010" stroke="none" d="M 0 0 L 16 8 L 0 16 z"/></marker><marker id="arrow_white" markerHeight="5" markerUnits="strokeWidth" markerWidth="5" orient="auto" refX="8" refY="8" viewBox="0 0 16 16"><path fill="#FFF" stroke="none" d="M 0 0 L 16 8 L 0 16 z"/></marker></defs><line x1="0" x2="912" y1="0" y2="0" style="stroke-width:2;stroke:#969696;fill:none"/><line x1="0" x2="912" y1="80" y2="80" style="stroke-width:2;stroke:#969696;fill:none"/><line x1="0" x2="912" y1="160" y2="160" style="stroke-width:2;stroke:#969696;fill:none"/><line x1="0" x2="912" y1="240" y2="240" style="stroke-width:2;stroke:#969696;fill:none"/><line x1="0" x2="912" y1="320" y2="320" style="stroke-width:2;stroke:#969696;fill:none"/><line x1="0" x2="912" y1="400" y2="400" style="stroke-width:2;stroke:#969696;fill:none"/><line x1="0" x2="912" y1="480" y2="480" style="stroke-width:2;stroke:#969696;fill:none"/><line x1="0" x2="912" y1="560" y2="560" style="stroke-width:2;stroke:#969696;fill:none"/><line x1="0" x2="912" y1="640" y2="640" style="stroke-width:2;stroke:#969696;fill:none"/><line x1="0" x2="0" y1="0" y2="640" style="stroke-width:2;stroke:#969696;fill:none"/><line x1="114" x2="114" y1="0" y2="640" style="stroke-width:2;stroke:#969696;fill:none"/><line x1="228" x2="228" y1="0" y2="640" style="stroke-width:2;stroke:#969696;fill:none"/><line x1="342" x2="342" y1="0" y2="640" style="stroke-width:2;stroke:#969696;fill:none"/><line x1="456" x2="456" y1="0" y2="640" style="stroke-width:2;stroke:#969696;fill:none"/><line x1="570" x2="570" y1="0" y2="640" style="stroke-width:2;stroke:#969696;fill:none"/><line x1="684" x2="684" y1="0" y2="640" style="stroke-width:2;stroke:#969696;fill:none"/><line x1="798" x2="798" y1="0" y2="640" style="stroke-width:2;stroke:#969696;fill:none"/><line x1="912" x2="912" y1="0" y2="640" style="stroke-width:2;stroke:#969696;fill:none"/><polyline points="456 320 513 360 570 400" style="stroke-width:6.666666666666667;stroke:#4285f4;fill:none;marker-mid:url(#arrow_blue)"/><polyline points="570 400 570 280 570 160" style="stroke-width:6.666666666666667;stroke:#4285f4;fill:none;marker-mid:url(#arrow_blue)"/><polyline points="570 160 627 200 684 240" style="stroke-width:6.666666666666667;stroke:#4285f4;fill:none;marker-mid:url(#arrow_blue)"/><polyline points="684 240 741 200 798 160" style="stroke-width:6.666666666666667;stroke:#4285f4;fill:none;marker-mid:url(#arrow_blue)"/><polyline points="798 160 855 80 912 0" style="stroke-width:6.666666666666667;stroke:#4285f4;fill:none;marker-mid:url(#arrow_blue)"/><polyline points="912 0 912 200 912 400" style="stroke-width:6.666666666666667;stroke:#4285f4;fill:none;marker-mid:url(#arrow_blue)"/><polyline points="912 400 855 520 798 640" style="stroke-width:6.666666666666667;stroke:#4285f4;fill:none;marker-mid:url(#arrow_blue)"/><polyline points="798 640 741 600 684 560" style="stroke-width:6.666666666666667;stroke:#4285f4;fill:none;marker-mid:url(#arrow_blue)"/><polyline points="684 560 513 560 342 560" style="stroke-width:6.666666666666667;stroke:#4285f4;fill:none;marker-mid:url(#arrow_blue)"/><polyline points="342 560 285 520 228 480" style="stroke-width:6.666666666666667;stroke:#4285f4;fill:none;marker-mid:url(#arrow_blue)"/><polyline points="228 480 171 480 114 480" style="stroke-width:6.666666666666667;stroke:#4285f4;fill:none;marker-mid:url(#arrow_blue)"/><polyline points="114 480 57 560 0 640" style="stroke-width:6.666666666666667;stroke:#4285f4;fill:none;marker-mid:url(#arrow_blue)"/><polyline points="0 640 0 360 0 80" style="stroke-width:6.666666666666667;stroke:#4285f4;fill:none;marker-mid:url(#arrow_blue)"/><polyline points="0 80 57 80 114 80" style="stroke-width:6.666666666666667;stroke:#4285f4;fill:none;marker-mid:url(#arrow_blue)"/><polyline points="114 80 171 40 228 0" style="stroke-width:6.666666666666667;stroke:#4285f4;fill:none;marker-mid:url(#arrow_blue)"/><polyline points="228 0 285 120 342 240" style="stroke-width:6.666666666666667;stroke:#4285f4;fill:none;marker-mid:url(#arrow_blue)"/><polyline points="342 240 399 280 456 320" style="stroke-width:6.666666666666667;stroke:#4285f4;fill:none;marker-mid:url(#arrow_blue)"/><circle cx="570" cy="400" r="26.667" style="stroke-width:6.666666666666667;stroke:#4285f4;fill:#fff"/><text x="570" y="400" dy="8.889" style="text-anchor:middle;font-weight:700;font-size:26.666666666666668;stroke:none;fill:#4285f4">9</text><circle cx="570" cy="160" r="26.667" style="stroke-width:6.666666666666667;stroke:#4285f4;fill:#fff"/><text x="570" y="160" dy="8.889" style="text-anchor:middle;font-weight:700;font-size:26.666666666666668;stroke:none;fill:#4285f4">5</text><circle cx="684" cy="240" r="26.667" style="stroke-width:6.666666666666667;stroke:#4285f4;fill:#fff"/><text x="684" y="240" dy="8.889" style="text-anchor:middle;font-weight:700;font-size:26.666666666666668;stroke:none;fill:#4285f4">8</text><circle cx="798" cy="160" r="26.667" style="stroke-width:6.666666666666667;stroke:#4285f4;fill:#fff"/><text x="798" y="160" dy="8.889" style="text-anchor:middle;font-weight:700;font-size:26.666666666666668;stroke:none;fill:#4285f4">6</text><circle cx="912" cy="0" r="26.667" style="stroke-width:6.666666666666667;stroke:#4285f4;fill:#fff"/><text x="912" y="0" dy="8.889" style="text-anchor:middle;font-weight:700;font-size:26.666666666666668;stroke:none;fill:#4285f4">2</text><circle cx="912" cy="400" r="26.667" style="stroke-width:6.666666666666667;stroke:#4285f4;fill:#fff"/><text x="912" y="400" dy="8.889" style="text-anchor:middle;font-weight:700;font-size:26.666666666666668;stroke:none;fill:#4285f4">10</text><circle cx="798" cy="640" r="26.667" style="stroke-width:6.666666666666667;stroke:#4285f4;fill:#fff"/><text x="798" y="640" dy="8.889" style="text-anchor:middle;font-weight:700;font-size:26.666666666666668;stroke:none;fill:#4285f4">16</text><circle cx="684" cy="560" r="26.667" style="stroke-width:6.666666666666667;stroke:#4285f4;fill:#fff"/><text x="684" y="560" dy="8.889" style="text-anchor:middle;font-weight:700;font-size:26.666666666666668;stroke:none;fill:#4285f4">14</text><circle cx="342" cy="560" r="26.667" style="stroke-width:6.666666666666667;stroke:#4285f4;fill:#fff"/><text x="342" y="560" dy="8.889" style="text-anchor:middle;font-weight:700;font-size:26.666666666666668;stroke:none;fill:#4285f4">13</text><circle cx="228" cy="480" r="26.667" style="stroke-width:6.666666666666667;stroke:#4285f4;fill:#fff"/><text x="228" y="480" dy="8.889" style="text-anchor:middle;font-weight:700;font-size:26.666666666666668;stroke:none;fill:#4285f4">12</text><circle cx="114" cy="480" r="26.667" style="stroke-width:6.666666666666667;stroke:#4285f4;fill:#fff"/><text x="114" y="480" dy="8.889" style="text-anchor:middle;font-weight:700;font-size:26.666666666666668;stroke:none;fill:#4285f4">11</text><circle cx="0" cy="640" r="26.667" style="stroke-width:6.666666666666667;stroke:#4285f4;fill:#fff"/><text x="0" y="640" dy="8.889" style="text-anchor:middle;font-weight:700;font-size:26.666666666666668;stroke:none;fill:#4285f4">15</text><circle cx="0" cy="80" r="26.667" style="stroke-width:6.666666666666667;stroke:#4285f4;fill:#fff"/><text x="0" y="80" dy="8.889" style="text-anchor:middle;font-weight:700;font-size:26.666666666666668;stroke:none;fill:#4285f4">3</text><circle cx="114" cy="80" r="26.667" style="stroke-width:6.666666666666667;stroke:#4285f4;fill:#fff"/><text x="114" y="80" dy="8.889" style="text-anchor:middle;font-weight:700;font-size:26.666666666666668;stroke:none;fill:#4285f4">4</text><circle cx="228" cy="0" r="26.667" style="stroke-width:6.666666666666667;stroke:#4285f4;fill:#fff"/><text x="228" y="0" dy="8.889" style="text-anchor:middle;font-weight:700;font-size:26.666666666666668;stroke:none;fill:#4285f4">1</text><circle cx="342" cy="240" r="26.667" style="stroke-width:6.666666666666667;stroke:#4285f4;fill:#fff"/><text x="342" y="240" dy="8.889" style="text-anchor:middle;font-weight:700;font-size:26.666666666666668;stroke:none;fill:#4285f4">7</text><circle cx="456" cy="320" r="26.667" style="stroke-width:6.666666666666667;stroke:#101010;fill:#fff"/><text x="456" y="320" dy="8.889" style="text-anchor:middle;font-weight:700;font-size:26.666666666666668;stroke:none;fill:#101010">0</text></svg>