<svg xmlns="http://www.w3.org/2000/svg" xmlns:xlink="http://www.w3.org/1999/xlink" width="1022.667" height="750.667" version="1.1" viewBox="-55.333 -55.333 1022.667 750.667"><defs><marker id="arrow_blue" markerHeight="5" markerUnits="strokeWidth" markerWidth="5" orient="auto" refX="8" refY="8" viewBox="0 0 16 16"><path fill="#4285F4" stroke="none" d="M 0 0 L 16 8 L 0 16 z"/></marker><marker id="arrow_red" markerHeight="5" markerUnits="strokeWidth" markerWidth="5" orient="auto" refX="8" refY="8" viewBox="0 0 16 16"><path fill="#EA4335" stroke="none" d="M 0 0 L 16 8 L 0 16 z"/></marker><marker id="arrow_yellow" markerHeight="5" markerUnits="strokeWidth" markerWidth="5" orient="auto" refX="8" refY="8" viewBox="0 0 16 16"><path fill="#FBBC05" stroke="none" d="M 0 0 L 16 8 L 0 16 z"/></marker><marker id="arrow_green" markerHeight="5" markerUnits="strokeWidth" markerWidth="5" orient="auto" refX="8" refY="8" viewBox="0 0 16 16"><path fill="#34A853" stroke="none" d="M 0 0 L 16 8 L 0 16 z"/></marker><marker id="arrow_black" markerHeight="5" markerUnits="strokeWidth" markerWidth="5" orient="auto" refX="8" refY="8" viewBox="0 0 16 16"><path fill="#101010" stroke="none" d="M 0 0 L 16 8 L 0 16 z"/></marker><marker id="arrow_white" markerHeight="5" markerUnits="strokeWidth" markerWidth="5" orient="auto" refX="8" refY="8" viewBox="0 0 16 16"><path fill="#FFF" stroke="none" d="M 0 0 L 16 8 L 0 16 z"/></marker></defs><line x1="0" x2="912" y1="0" y2="0" style="stroke-width:2;stroke:#969696;fill:none"/><line x1="0" x2="912" y1="80" y2="80" style="stroke-width:2;stroke:#969696;fill:none"/><line x1="0" x2="912" y1="160" y2="160" style="stroke-width:2;stroke:#969696;fill:none"/><line x1="0" x2="912" y1="240" y2="240" style="stroke-width:2;stroke:#969696;fill:none"/><line x1="0" x2="912" y1="320" y2="320" style="stroke-width:2;stroke:#969696;fill:none"/><line x1="0" x2="912" y1="400" y2="400" style="stroke-width:2;stroke:#969696;fill:none"/><line x1="0" x2="912" y1="480" y2="480" style="stroke-width:2;stroke:#969696;fill:none"/><line x1="0" x2="912" y1="560" y2="560" style="stroke-width:2;stroke:#969696;fill:none"/><line x1="0" x2="912" y1="640" y2="640" style="stroke-width:2;stroke:#969696;fill:none"/><line x1="0" x2="0" y1="0" y2="640" style="stroke-width:2;stroke:#969696;fill:none"/><line x1="114" x2="114" y1="0" y2="640" style="stroke-width:2;stroke:#969696;fill:none"/><line x1="228" x2="228" y1="0" y2="640" style="stroke-width:2;stroke:#969696;fill:none"/><line x1="342" x2="342" y1="0" y2="640" style="stroke-width:2;stroke:#969696;fill:none"/><line x1="456" x2="456" y1="0" y2="640" style="stroke-width:2;stroke:#969696;fill:none"/><line x1="570" x2="570" y1="0" y2="640" style="stroke-width:2;stroke:#969696;fill:none"/><line x1="684" x2="684" y1="0" y2="640" style="stroke-width:2;stroke:#969696;fill:none"/><line x1="798" x2="798" y1="0" y2="640" style="stroke-width:2;stroke:#969696;fill:none"/><line x1="912" x2="912" y1="0" y2="640" style="stroke-width:2;stroke:#969696;fill:none"/><polyline points="456 320 570 280 684 240" style="stroke-width:6.666666666666667;stroke:#4285f4;fill:none;marker-mid:url(#arrow_blue)"/><polyline points="684 240 684 400 684 560" style="stroke-width:6.666666666666667;stroke:#4285f4;fill:none;marker-mid:url(#arrow_blue)"/><polyline points="684 560 741 600 798 640" style="stroke-width:6.666666666666667;stroke:#4285f4;fill:none;marker-mid:url(#arrow_blue)"/><polyline points="798 640 627 480 456 320" style="stroke-width:6.666666666666667;stroke:#4285f4;fill:none;marker-mid:url(#arrow_blue)"/><circle cx="684" cy="240" r="26.667" style="stroke-width:6.666666666666667;stroke:#4285f4;fill:#fff"/><text x="684" y="240" dy="8.889" style="text-anchor:middle;font-weight:700;font-size:26.666666666666668;stroke:none;fill:#4285f4">8</text><circle cx="684" cy="560" r="26.667" style="stroke-width:6.666666666666667;stroke:#4285f4;fill:#fff"/><text x="684" y="560" dy="8.889" style="text-anchor:middle;font-weight:700;font-size:26.666666666666668;stroke:none;fill:#4285f4">14</text><circle cx="798" cy="640" r="26.667" style="stroke-width:6.666666666666667;stroke:#4285f4;fill:#fff"/><text x="798" y="640" dy="8.889" style="text-anchor:middle;font-weight:700;font-size:26.666666666666668;stroke:none;fill:#4285f4">16</text><polyline points="456 320 342 400 228 480" style="stroke-width:6.666666666666667;stroke:#ea4335;fill:none;marker-mid:url(#arrow_red)"/><polyline points="228 480 285 520 342 560" style="stroke-width:6.666666666666667;stroke:#ea4335;fill:none;marker-mid:url(#arrow_red)"/><polyline points="342 560 171 600 0 640" style="stroke-width:6.666666666666667;stroke:#ea4335;fill:none;marker-mid:url(#arrow_red)"/><polyline points="0 640 57 560 114 480" style="stroke-width:6.666666666666667;stroke:#ea4335;fill:none;marker-mid:url(#arrow_red)"/><polyline points="114 480 285 400 456 320" style="stroke-width:6.666666666666667;stroke:#ea4335;fill:none;marker-mid:url(#arrow_red)"/><circle cx="228" cy="480" r="26.667" style="stroke-width:6.666666666666667;stroke:#ea4335;fill:#fff"/><text x="228" y="480" dy="8.889" style="text-anchor:middle;font-weight:700;font-size:26.666666666666668;stroke:none;fill:#ea4335">12</text><circle cx="342" cy="560" r="26.667" style="stroke-width:6.666666666666667;stroke:#ea4335;fill:#fff"/><text x="342" y="560" dy="8.889" style="text-anchor:middle;font-weight:700;font-size:26.666666666666668;stroke:none;fill:#ea4335">13</text><circle cx="0" cy="640" r="26.667" style="stroke-width:6.666666666666667;stroke:#ea4335;fill:#fff"/><text x="0" y="640" dy="8.889" style="text-anchor:middle;font-weight:700;font-size:26.666666666666668;stroke:none;fill:#ea4335">15</text><circle cx="114" cy="480" r="26.667" style="stroke-width:6.666666666666667;stroke:#ea4335;fill:#fff"/><text x="114" y="480" dy="8.889" style="text-anchor:middle;font-weight:700;font-size:26.666666666666668;stroke:none;fill:#ea4335">11</text><polyline points="456 320 399 280 342 240" style="stroke-width:6.666666666666667;stroke:#fbbc05;fill:none;marker-mid:url(#arrow_yellow)"/><polyline points="342 240 285 120 228 0" style="stroke-width:6.666666666666667;stroke:#fbbc05;fill:none;marker-mid:url(#arrow_yellow)"/><polyline points="228 0 171 40 114 80" style="stroke-width:6.666666666666667;stroke:#fbbc05;fill:none;marker-mid:url(#arrow_yellow)"/><polyline points="114 80 57 80 0 80" style="stroke-width:6.666666666666667;stroke:#fbbc05;fill:none;marker-mid:url(#arrow_yellow)"/><polyline points="0 80 228 200 456 320" style="stroke-width:6.666666666666667;stroke:#fbbc05;fill:none;marker-mid:url(#arrow_yellow)"/><circle cx="342" cy="240" r="26.667" style="stroke-width:6.666666666666667;stroke:#fbbc05;fill:#fff"/><text x="342" y="240" dy="8.889" style="text-anchor:middle;font-weight:700;font-size:26.666666666666668;stroke:none;fill:#fbbc05">7</text><circle cx="228" cy="0" r="26.667" style="stroke-width:6.666666666666667;stroke:#fbbc05;fill:#fff"/><text x="228" y="0" dy="8.889" style="text-anchor:middle;font-weight:700;font-size:26.666666666666668;stroke:none;fill:#fbbc05">1</text><circle cx="114" cy="80" r="26.667" style="stroke-width:6.666666666666667;stroke:#fbbc05;fill:#fff"/><text x="114" y="80" dy="8.889" style="text-anchor:middle;font-weight:700;font-size:26.666666666666668;stroke:none;fill:#fbbc05">4</text><circle cx="0" cy="80" r="26.667" style="stroke-width:6.666666666666667;stroke:#fbbc05;fill:#fff"/><text x="0" y="80" dy="8.889" style="text-anchor:middle;font-weight:700;font-size:26.666666666666668;stroke:none;fill:#fbbc05">3</text><polyline points="456 320 513 360 570 400" style="stroke-width:6.666666666666667;stroke:#34a853;fill:none;marker-mid:url(#arrow_green)"/><polyline points="570 400 570 280 570 160" style="stroke-width:6.666666666666667;stroke:#34a853;fill:none;marker-mid:url(#arrow_green)"/><polyline points="570 160 684 160 798 160" style="stroke-width:6.666666666666667;stroke:#34a853;fill:none;marker-mid:url(#arrow_green)"/><polyline points="798 160 855 80 912 0" style="stroke-width:6.666666666666667;stroke:#34a853;fill:none;marker-mid:url(#arrow_green)"/><polyline points="912 0 912 200 912 400" style="stroke-width:6.666666666666667;stroke:#34a853;fill:none;marker-mid:url(#arrow_green)"/><polyline points="912 400 684 360 456 320" style="stroke-width:6.666666666666667;stroke:#34a853;fill:none;marker-mid:url(#arrow_green)"/><circle cx="570" cy="400" r="26.667" style="stroke-width:6.666666666666667;stroke:#34a853;fill:#fff"/><text x="570" y="400" dy="8.889" style="text-anchor:middle;font-weight:700;font-size:26.666666666666668;stroke:none;fill:#34a853">9</text><circle cx="570" cy="160" r="26.667" style="stroke-width:6.666666666666667;stroke:#34a853;fill:#fff"/><text x="570" y="160" dy="8.889" style="text-anchor:middle;font-weight:700;font-size:26.666666666666668;stroke:none;fill:#34a853">5</text><circle cx="798" cy="160" r="26.667" style="stroke-width:6.666666666666667;stroke:#34a853;fill:#fff"/><text x="798" y="160" dy="8.889" style="text-anchor:middle;font-weight:700;font-size:26.666666666666668;stroke:none;fill:#34a853">6</text><circle cx="912" cy="0" r="26.667" style="stroke-width:6.666666666666667;stroke:#34a853;fill:#fff"/><text x="912" y="0" dy="8.889" style="text-anchor:middle;font-weight:700;font-size:26.666666666666668;stroke:none;fill:#34a853">2</text><circle cx="912" cy="400" r="26.667" style="stroke-width:6.666666666666667;stroke:#34a853;fill:#fff"/><text x="912" y="400" dy="8.889" style="text-anchor:middle;font-weight:700;font-size:26.666666666666668;stroke:none;fill:#34a853">10</text><circle cx="456" cy="320" r="26.667" style="stroke-width:6.666666666666667;stroke:#101010;fill:#fff"/><text x="456" y="320" dy="8.889" style="text-anchor:middle;font-weight:700;font-size:26.666666666666668;stroke:none;fill:#101010">0</text><text x="228" y="-42.667" dy="6.667" style="text-anchor:middle;font-weight:700;font-size:20;stroke:#fff;fill:#ea4335">[7,12]</text><text x="912" y="-42.667" dy="6.667" style="text-anchor:middle;font-weight:700;font-size:20;stroke:#fff;fill:#ea4335">[10,15]</text><text x="0" y="37.333" dy="6.667" style="text-anchor:middle;font-weight:700;font-size:20;stroke:#fff;fill:#ea4335">[5,14]</text><text x="114" y="37.333" dy="6.667" style="text-anchor:middle;font-weight:700;font-size:20;stroke:#fff;fill:#ea4335">[5,13]</text><text x="570" y="117.333" dy="6.667" style="text-anchor:middle;font-weight:700;font-size:20;stroke:#fff;fill:#ea4335">[0,5]</text><text x="798" y="117.333" dy="6.667" style="text-anchor:middle;font-weight:700;font-size:20;stroke:#fff;fill:#ea4335">[5,10]</text><text x="342" y="197.333" dy="6.667" style="text-anchor:middle;font-weight:700;font-size:20;stroke:#fff;fill:#ea4335">[0,10]</text><text x="684" y="197.333" dy="6.667" style="text-anchor:middle;font-weight:700;font-size:20;stroke:#fff;fill:#ea4335">[5,10]</text><text x="570" y="357.333" dy="6.667" style="text-anchor:middle;font-weight:700;font-size:20;stroke:#fff;fill:#ea4335">[0,5]</text><text x="912" y="357.333" dy="6.667" style="text-anchor:middle;font-weight:700;font-size:20;stroke:#fff;fill:#ea4335">[10,16]</text><text x="114" y="437.333" dy="6.667" style="text-anchor:middle;font-weight:700;font-size:20;stroke:#fff;fill:#ea4335">[10,15]</text><text x="228" y="437.333" dy="6.667" style="text-anchor:middle;font-weight:700;font-size:20;stroke:#fff;fill:#ea4335">[0,5]</text><text x="342" y="517.333" dy="6.667" style="text-anchor:middle;font-weight:700;font-size:20;stroke:#fff;fill:#ea4335">[5,10]</text><text x="684" y="517.333" dy="6.667" style="text-anchor:middle;font-weight:700;font-size:20;stroke:#fff;fill:#ea4335">[7,12]</text><text x="0" y="597.333" dy="6.667" style="text-anchor:middle;font-weight:700;font-size:20;stroke:#fff;fill:#ea4335">[10,15]</text><text x="798" y="597.333" dy="6.667" style="text-anchor:middle;font-weight:700;font-size:20;stroke:#fff;fill:#ea4335">[5,15]</text><text x="429.333" y="368" dy="6.667" style="text-anchor:middle;font-weight:700;font-size:20;stroke:#fff;fill:#4285f4">[5]</text><text x="684" y="288" dy="6.667" style="text-anchor:middle;font-weight:700;font-size:20;stroke:#fff;fill:#4285f4">[8]</text><text x="684" y="608" dy="6.667" style="text-anchor:middle;font-weight:700;font-size:20;stroke:#fff;fill:#4285f4">[11]</text><text x="798" y="688" dy="6.667" style="text-anchor:middle;font-weight:700;font-size:20;stroke:#fff;fill:#4285f4">[13]</text><text x="482.667" y="368" dy="6.667" style="text-anchor:middle;font-weight:700;font-size:20;stroke:#fff;fill:#4285f4">[20]</text><text x="429.333" y="394.667" dy="6.667" style="text-anchor:middle;font-weight:700;font-size:20;stroke:#fff;fill:#ea4335">[0]</text><text x="228" y="528" dy="6.667" style="text-anchor:middle;font-weight:700;font-size:20;stroke:#fff;fill:#ea4335">[4]</text><text x="342" y="608" dy="6.667" style="text-anchor:middle;font-weight:700;font-size:20;stroke:#fff;fill:#ea4335">[6]</text><text x="0" y="688" dy="6.667" style="text-anchor:middle;font-weight:700;font-size:20;stroke:#fff;fill:#ea4335">[11]</text><text x="114" y="528" dy="6.667" style="text-anchor:middle;font-weight:700;font-size:20;stroke:#fff;fill:#ea4335">[14]</text><text x="482.667" y="394.667" dy="6.667" style="text-anchor:middle;font-weight:700;font-size:20;stroke:#fff;fill:#ea4335">[20]</text><text x="429.333" y="421.333" dy="6.667" style="text-anchor:middle;font-weight:700;font-size:20;stroke:#fff;fill:#fbbc05">[5]</text><text x="342" y="288" dy="6.667" style="text-anchor:middle;font-weight:700;font-size:20;stroke:#fff;fill:#fbbc05">[7]</text><text x="228" y="48" dy="6.667" style="text-anchor:middle;font-weight:700;font-size:20;stroke:#fff;fill:#fbbc05">[11]</text><text x="114" y="128" dy="6.667" style="text-anchor:middle;font-weight:700;font-size:20;stroke:#fff;fill:#fbbc05">[13]</text><text x="0" y="128" dy="6.667" style="text-anchor:middle;font-weight:700;font-size:20;stroke:#fff;fill:#fbbc05">[14]</text><text x="482.667" y="421.333" dy="6.667" style="text-anchor:middle;font-weight:700;font-size:20;stroke:#fff;fill:#fbbc05">[25]</text><text x="429.333" y="448" dy="6.667" style="text-anchor:middle;font-weight:700;font-size:20;stroke:#fff;fill:#34a853">[0]</text><text x="570" y="448" dy="6.667" style="text-anchor:middle;font-weight:700;font-size:20;stroke:#fff;fill:#34a853">[2]</text><text x="570" y="208" dy="6.667" style="text-anchor:middle;font-weight:700;font-size:20;stroke:#fff;fill:#34a853">[4]</text><text x="798" y="208" dy="6.667" style="text-anchor:middle;font-weight:700;font-size:20;stroke:#fff;fill:#34a853">[6]</text><text x="912" y="48" dy="6.667" style="text-anchor:middle;font-weight:700;font-size:20;stroke:#fff;fill:#34a853">[10]</text><text x="912" y="448" dy="6.667" style="text-anchor:middle;font-weight:700;font-size:20;stroke:#fff;fill:#34a853">[14]</text><text x="482.667" y="448" dy="6.667" style="text-anchor:middle;font-weight:700;font-size:20;stroke:#fff;fill:#34a853">[25]</text></svg>