<svg xmlns="http://www.w3.org/2000/svg" xmlns:xlink="http://www.w3.org/1999/xlink" width="984" height="636" viewBox="0 0 738 477"><g id="graph0" class="graph" transform="scale(1 1) rotate(0) translate(4 473)"><title>Legend</title><polygon fill="none" stroke="none" points="-4 4 -4 -473 734 -473 734 4 -4 4"/><g id="clust1" class="cluster"><title>clusterLegend</title><polygon fill="#fff" stroke="#000" points="8 -8 8 -461 722 -461 722 -8 8 -8"/><text x="365" y="-445.8" font-family="Times,serif" font-size="14" text-anchor="middle">Legend</text></g><g id="node1" class="node"><title>CPP</title><polygon fill="#4169e1" stroke="#000" points="98 -430 43 -430 43 -394 104 -394 104 -424 98 -430"/><polyline fill="none" stroke="#000" points="98 -430 98 -424"/><polyline fill="none" stroke="#000" points="104 -424 98 -424"/><text x="73.5" y="-408.3" font-family="Times,serif" font-size="14" text-anchor="middle">Foo.cpp</text></g><g id="node2" class="node"><title>CPP_LGD</title><polygon fill="none" stroke="none" points="348 -430 238 -430 238 -394 348 -394 348 -430"/><text x="293" y="-408.3" font-family="Times,serif" font-size="14" text-anchor="middle">: C++ source file</text></g><g id="edge1" class="edge"><title>CPP-&gt;CPP_LGD</title></g><g id="node3" class="node"><title>LIB</title><polygon fill="#4169e1" stroke="#000" points="100.5 -376 46.5 -376 46.5 -372 42.5 -372 42.5 -368 46.5 -368 46.5 -348 42.5 -348 42.5 -344 46.5 -344 46.5 -340 100.5 -340 100.5 -376"/><polyline fill="none" stroke="#000" points="46.5 -372 50.5 -372 50.5 -368 46.5 -368"/><polyline fill="none" stroke="#000" points="46.5 -348 50.5 -348 50.5 -344 46.5 -344"/><text x="73.5" y="-354.3" font-family="Times,serif" font-size="14" text-anchor="middle">Foo.so</text></g><g id="node4" class="node"><title>LIB_LGD</title><polygon fill="none" stroke="none" points="378 -376 208 -376 208 -340 378 -340 378 -376"/><text x="293" y="-354.3" font-family="Times,serif" font-size="14" text-anchor="middle">: Shared library (i.e. binary)</text></g><g id="edge2" class="edge"><title>LIB-&gt;LIB_LGD</title></g><g id="node5" class="node"><title>CS</title><polygon fill="#9400d3" stroke="#000" points="94.5 -322 46.5 -322 46.5 -286 100.5 -286 100.5 -316 94.5 -322"/><polyline fill="none" stroke="#000" points="94.5 -322 94.5 -316"/><polyline fill="none" stroke="#000" points="100.5 -316 94.5 -316"/><text x="73.5" y="-300.3" font-family="Times,serif" font-size="14" text-anchor="middle">Foo.cs</text></g><g id="node6" class="node"><title>CS_LGD</title><polygon fill="none" stroke="none" points="343.5 -322 242.5 -322 242.5 -286 343.5 -286 343.5 -322"/><text x="293" y="-300.3" font-family="Times,serif" font-size="14" text-anchor="middle">: C# source file</text></g><g id="edge3" class="edge"><title>CS-&gt;CS_LGD</title></g><g id="node7" class="node"><title>DLL</title><polygon fill="#9400d3" stroke="#000" points="101.5 -268 45.5 -268 45.5 -264 41.5 -264 41.5 -260 45.5 -260 45.5 -240 41.5 -240 41.5 -236 45.5 -236 45.5 -232 101.5 -232 101.5 -268"/><polyline fill="none" stroke="#000" points="45.5 -264 49.5 -264 49.5 -260 45.5 -260"/><polyline fill="none" stroke="#000" points="45.5 -240 49.5 -240 49.5 -236 45.5 -236"/><text x="73.5" y="-246.3" font-family="Times,serif" font-size="14" text-anchor="middle">Foo.dll</text></g><g id="node8" class="node"><title>DLL_LGD</title><polygon fill="none" stroke="none" points="385.5 -268 200.5 -268 200.5 -232 385.5 -232 385.5 -268"/><text x="293" y="-246.3" font-family="Times,serif" font-size="14" text-anchor="middle">: Assembly output (i.e. binary)</text></g><g id="edge4" class="edge"><title>DLL-&gt;DLL_LGD</title></g><g id="node9" class="node"><title>NUPKG</title><polygon fill="#9400d3" stroke="#000" points="131 -214 128 -218 107 -218 104 -214 16 -214 16 -178 131 -178 131 -214"/><text x="73.5" y="-192.3" font-family="Times,serif" font-size="14" text-anchor="middle">Mizux.Foo.nupkg</text></g><g id="node10" class="node"><title>NUPKG_LGD</title><polygon fill="none" stroke="none" points="393 -214 193 -214 193 -178 393 -178 393 -214"/><text x="293" y="-192.3" font-family="Times,serif" font-size="14" text-anchor="middle">: Nuget package file (i.e. archive)</text></g><g id="edge5" class="edge"><title>NUPKG-&gt;NUPKG_LGD</title></g><g id="node11" class="node"><title>A</title><polygon fill="#fff" stroke="#000" points="94.5 -160 46.5 -160 46.5 -124 100.5 -124 100.5 -154 94.5 -160"/><polyline fill="none" stroke="#000" points="94.5 -160 94.5 -154"/><polyline fill="none" stroke="#000" points="100.5 -154 94.5 -154"/><text x="73.5" y="-138.3" font-family="Times,serif" font-size="14" text-anchor="middle">A</text></g><g id="node12" class="node"><title>B</title><polygon fill="#fff" stroke="#000" points="314 -160 266 -160 266 -124 320 -124 320 -154 314 -160"/><polyline fill="none" stroke="#000" points="314 -160 314 -154"/><polyline fill="none" stroke="#000" points="320 -154 314 -154"/><text x="293" y="-138.3" font-family="Times,serif" font-size="14" text-anchor="middle">B</text></g><g id="edge6" class="edge"><title>A-&gt;B</title><path fill="none" stroke="#000" stroke-width="2" d="M100.736,-142C139.356,-142 211.657,-142 255.454,-142"/><polygon fill="#000" stroke="#000" stroke-width="2" points="255.671 -145.5 265.671 -142 255.671 -138.5 255.671 -145.5"/><text x="162" y="-145.8" font-family="Times,serif" font-size="14" text-anchor="middle">cmd</text></g><g id="node13" class="node"><title>CMD_LGD</title><polygon fill="none" stroke="none" points="695.5 -162 448.5 -162 448.5 -126 695.5 -126 695.5 -162"/><text x="572" y="-140.3" font-family="Times,serif" font-size="14" text-anchor="middle">: &apos;cmd [...] A&apos; will generate file B from A.</text></g><g id="edge7" class="edge"><title>B-&gt;CMD_LGD</title></g><g id="node14" class="node"><title>C</title><polygon fill="#fff" stroke="#000" points="94.5 -106 46.5 -106 46.5 -70 100.5 -70 100.5 -100 94.5 -106"/><polyline fill="none" stroke="#000" points="94.5 -106 94.5 -100"/><polyline fill="none" stroke="#000" points="100.5 -100 94.5 -100"/><text x="73.5" y="-84.3" font-family="Times,serif" font-size="14" text-anchor="middle">A</text></g><g id="node15" class="node"><title>D</title><polygon fill="#fff" stroke="#000" points="314 -106 266 -106 266 -70 320 -70 320 -100 314 -106"/><polyline fill="none" stroke="#000" points="314 -106 314 -100"/><polyline fill="none" stroke="#000" points="320 -100 314 -100"/><text x="293" y="-84.3" font-family="Times,serif" font-size="14" text-anchor="middle">B</text></g><g id="edge8" class="edge"><title>C-&gt;D</title><path fill="none" stroke="#000" stroke-dasharray="5 2" d="M100.736,-88C139.356,-88 211.657,-88 255.454,-88"/><polygon fill="#000" stroke="#000" points="255.671 -91.5 265.671 -88 255.671 -84.5 255.671 -91.5"/><text x="162" y="-91.8" font-family="Times,serif" font-size="14" text-anchor="middle">ref</text></g><g id="node16" class="node"><title>REF_LGD</title><polygon fill="none" stroke="none" points="696.5 -108 447.5 -108 447.5 -70 696.5 -70 696.5 -108"/><text x="572" y="-92.8" font-family="Times,serif" font-size="14" text-anchor="middle">: B references file A (i.e. B depends on A)</text><text x="572" y="-77.8" font-family="Times,serif" font-size="14" text-anchor="middle">&apos;ref&apos; may refer to the keyword use in B.</text></g><g id="edge9" class="edge"><title>D-&gt;REF_LGD</title></g><g id="node17" class="node"><title>E</title><polygon fill="#fff" stroke="#000" points="94.5 -52 46.5 -52 46.5 -16 100.5 -16 100.5 -46 94.5 -52"/><polyline fill="none" stroke="#000" points="94.5 -52 94.5 -46"/><polyline fill="none" stroke="#000" points="100.5 -46 94.5 -46"/><text x="73.5" y="-30.3" font-family="Times,serif" font-size="14" text-anchor="middle">E</text></g><g id="node18" class="node"><title>F</title><polygon fill="#fff" stroke="#000" points="320 -52 317 -56 296 -56 293 -52 266 -52 266 -16 320 -16 320 -52"/><text x="293" y="-30.3" font-family="Times,serif" font-size="14" text-anchor="middle">F</text></g><g id="edge10" class="edge"><title>E-&gt;F</title><path fill="none" stroke="#000" stroke-dasharray="5 2" d="M100.736,-34C139.356,-34 211.657,-34 255.454,-34"/><polygon fill="#000" stroke="#000" points="255.671 -37.5 265.671 -34 255.671 -30.5 255.671 -37.5"/><text x="162" y="-37.8" font-family="Times,serif" font-size="14" text-anchor="middle">pack</text></g><g id="node19" class="node"><title>FOLDER_LGD</title><polygon fill="none" stroke="none" points="714 -52 430 -52 430 -16 714 -16 714 -52"/><text x="572" y="-30.3" font-family="Times,serif" font-size="14" text-anchor="middle">: Archive F contains file E (i.e. F depends on E).</text></g><g id="edge11" class="edge"><title>F-&gt;FOLDER_LGD</title></g></g></svg>