<svg xmlns="http://www.w3.org/2000/svg" xmlns:xlink="http://www.w3.org/1999/xlink" width="568" height="1284" viewBox="0 0 426 963"><g id="graph0" class="graph" transform="scale(1 1) rotate(0) translate(4 959)"><title>Make</title><polygon fill="#fff" stroke="none" points="-4 4 -4 -959 422 -959 422 4 -4 4"/><g id="clust1" class="cluster"><title>clusterLinux</title><polygon fill="none" stroke="#000" points="8 -8 8 -947 410 -947 410 -8 8 -8"/><text x="209" y="-931.8" font-family="Times,serif" font-size="14" text-anchor="middle">Host</text></g><g id="node1" class="node"><title>CPP</title><polygon fill="#4169e1" stroke="#000" points="261 -916 145 -916 145 -880 267 -880 267 -910 261 -916"/><polyline fill="none" stroke="#000" points="261 -916 261 -910"/><polyline fill="none" stroke="#000" points="267 -910 261 -910"/><text x="206" y="-894.3" font-family="Times,serif" font-size="14" text-anchor="middle">ortools.h/ortools.cc</text></g><g id="node2" class="node"><title>SWIG</title><polygon fill="#fff" stroke="#000" points="197.5 -829 102.5 -829 102.5 -793 203.5 -793 203.5 -823 197.5 -829"/><polyline fill="none" stroke="#000" points="197.5 -829 197.5 -823"/><polyline fill="none" stroke="#000" points="203.5 -823 197.5 -823"/><text x="153" y="-807.3" font-family="Times,serif" font-size="14" text-anchor="middle">csharp/ortools.i</text></g><g id="edge1" class="edge"><title>CPP-&gt;SWIG</title><path fill="none" stroke="#000" stroke-dasharray="5 2" d="M195.275,-879.799C187.732,-867.702 177.508,-851.305 169.004,-837.667"/><polygon fill="#000" stroke="#000" points="171.97 -835.809 163.709 -829.175 166.03 -839.513 171.97 -835.809"/><text x="202" y="-850.8" font-family="Times,serif" font-size="14" text-anchor="middle">include</text></g><g id="node3" class="node"><title>LINUX_LIB</title><polygon fill="#4169e1" stroke="#000" points="402 -742 244 -742 244 -738 240 -738 240 -734 244 -734 244 -712 240 -712 240 -708 244 -708 244 -704 402 -704 402 -742"/><polyline fill="none" stroke="#000" points="244 -738 248 -738 248 -734 244 -734"/><polyline fill="none" stroke="#000" points="244 -712 248 -712 248 -708 244 -708"/><text x="323" y="-726.8" font-family="Times,serif" font-size="14" text-anchor="middle">libortools.so</text><text x="323" y="-711.8" font-family="Times,serif" font-size="14" text-anchor="middle">runtimes/linux-x64/native</text></g><g id="edge15" class="edge"><title>CPP-&gt;LINUX_LIB</title><path fill="none" stroke="#000" stroke-width="2" d="M217.646,-879.78C238.107,-849.525 280.638,-786.637 304.939,-750.705"/><polygon fill="#000" stroke="#000" stroke-width="2" points="307.997 -752.431 310.7 -742.187 302.199 -748.51 307.997 -752.431"/><text x="300.5" y="-807.3" font-family="Times,serif" font-size="14" text-anchor="middle">make_cc</text></g><g id="node4" class="node"><title>LINUX_CSWRP</title><polygon fill="#9400d3" stroke="#000" points="151.5 -564 88.5 -564 88.5 -528 157.5 -528 157.5 -558 151.5 -564"/><polyline fill="none" stroke="#000" points="151.5 -564 151.5 -558"/><polyline fill="none" stroke="#000" points="157.5 -558 151.5 -558"/><text x="123" y="-542.3" font-family="Times,serif" font-size="14" text-anchor="middle">ortools.cs</text></g><g id="edge13" class="edge"><title>SWIG-&gt;LINUX_CSWRP</title><path fill="none" stroke="#000" stroke-width="2" d="M120.81,-792.879C102.533,-781.22 81.3026,-763.928 71,-742 63.8546,-726.792 59.3067,-655.208 73,-615 78.3736,-599.222 88.8435,-584.04 98.8199,-572.039"/><polygon fill="#000" stroke="#000" stroke-width="2" points="101.655 -574.112 105.579 -564.271 96.374 -569.517 101.655 -574.112"/><text x="78" y="-674.8" font-family="Times,serif" font-size="14" text-anchor="middle">swig</text></g><g id="node5" class="node"><title>LINUX_CPPWRP</title><polygon fill="#4169e1" stroke="#000" points="220 -741 80 -741 80 -705 226 -705 226 -735 220 -741"/><polyline fill="none" stroke="#000" points="220 -741 220 -735"/><polyline fill="none" stroke="#000" points="226 -735 220 -735"/><text x="153" y="-719.3" font-family="Times,serif" font-size="14" text-anchor="middle">ortools_csharp_wrap.cc</text></g><g id="edge14" class="edge"><title>SWIG-&gt;LINUX_CPPWRP</title><path fill="none" stroke="#000" stroke-width="2" d="M153,-792.597C153,-780.746 153,-764.817 153,-751.292"/><polygon fill="#000" stroke="#000" stroke-width="2" points="156.5 -751.084 153 -741.084 149.5 -751.084 156.5 -751.084"/><text x="166" y="-763.8" font-family="Times,serif" font-size="14" text-anchor="middle">swig</text></g><g id="node6" class="node"><title>LINUX_LIBWRP</title><polygon fill="#4169e1" stroke="#000" points="306 -653 82 -653 82 -649 78 -649 78 -645 82 -645 82 -623 78 -623 78 -619 82 -619 82 -615 306 -615 306 -653"/><polyline fill="none" stroke="#000" points="82 -649 86 -649 86 -645 82 -645"/><polyline fill="none" stroke="#000" points="82 -623 86 -623 86 -619 82 -619"/><text x="194" y="-637.8" font-family="Times,serif" font-size="14" text-anchor="middle">Google.OrTools.runtime.linux-x64.so</text><text x="194" y="-622.8" font-family="Times,serif" font-size="14" text-anchor="middle">runtimes/linux-x64/native</text></g><g id="edge3" class="edge"><title>LINUX_LIB-&gt;LINUX_LIBWRP</title><path fill="none" stroke="#000" stroke-width="2" d="M296.271,-703.974C276.812,-690.85 250.272,-672.951 229.105,-658.676"/><polygon fill="#000" stroke="#000" stroke-width="2" points="230.942 -655.693 220.695 -653.003 227.028 -661.497 230.942 -655.693"/><text x="271.5" y="-674.8" font-family="Times,serif" font-size="14" text-anchor="middle">ld</text></g><g id="node7" class="node"><title>LINUX_CSPROJ</title><polygon fill="#9400d3" stroke="#000" points="265.5 -477 26.5 -477 26.5 -441 271.5 -441 271.5 -471 265.5 -477"/><polyline fill="none" stroke="#000" points="265.5 -477 265.5 -471"/><polyline fill="none" stroke="#000" points="271.5 -471 265.5 -471"/><text x="149" y="-455.3" font-family="Times,serif" font-size="14" text-anchor="middle">Google.OrTools.runtime.linux-x64.csproj</text></g><g id="edge6" class="edge"><title>LINUX_LIB-&gt;LINUX_CSPROJ</title><path fill="none" stroke="#000" stroke-dasharray="5 2" d="M325.152,-703.673C327.542,-675.359 328.398,-620.257 305,-582 277.796,-537.52 228.08,-502.927 192.069,-482.115"/><polygon fill="#000" stroke="#000" points="193.66 -478.994 183.231 -477.124 190.217 -485.089 193.66 -478.994"/><text x="333.5" y="-585.8" font-family="Times,serif" font-size="14" text-anchor="middle">Content</text></g><g id="node9" class="node"><title>LINUX_NUPKG</title><polygon fill="#9400d3" stroke="#000" points="371.5 -301 368.5 -305 347.5 -305 344.5 -301 126.5 -301 126.5 -265 371.5 -265 371.5 -301"/><text x="249" y="-279.3" font-family="Times,serif" font-size="14" text-anchor="middle">Google.OrTools.runtime.linux-x64.nupkg</text></g><g id="edge9" class="edge"><title>LINUX_LIB-&gt;LINUX_NUPKG</title><path fill="none" stroke="#000" stroke-dasharray="5 2" d="M331.547,-703.762C355.981,-649.019 421.646,-481.891 378,-352 370.695,-330.259 352.405,-315.39 331.82,-305.251"/><polygon fill="#000" stroke="#000" points="333.111 -301.994 322.558 -301.054 330.222 -308.37 333.111 -301.994"/><text x="403" y="-498.8" font-family="Times,serif" font-size="14" text-anchor="middle">pack</text></g><g id="edge5" class="edge"><title>LINUX_CSWRP-&gt;LINUX_CSPROJ</title><path fill="none" stroke="#000" stroke-dasharray="5 2" d="M128.261,-527.799C131.856,-516.047 136.692,-500.238 140.789,-486.842"/><polygon fill="#000" stroke="#000" points="144.168 -487.762 143.746 -477.175 137.474 -485.714 144.168 -487.762"/><text x="162" y="-498.8" font-family="Times,serif" font-size="14" text-anchor="middle">Compile</text></g><g id="edge2" class="edge"><title>LINUX_CPPWRP-&gt;LINUX_LIBWRP</title><path fill="none" stroke="#000" stroke-width="2" d="M161.1,-704.812C166.827,-692.661 174.621,-676.122 181.185,-662.192"/><polygon fill="#000" stroke="#000" stroke-width="2" points="184.396 -663.589 185.493 -653.051 178.064 -660.605 184.396 -663.589"/><text x="187" y="-674.8" font-family="Times,serif" font-size="14" text-anchor="middle">g++</text></g><g id="edge4" class="edge"><title>LINUX_LIBWRP-&gt;LINUX_CSWRP</title><path fill="none" stroke="#000" stroke-dasharray="5 2" d="M162.447,-614.999C155.368,-609.872 148.373,-603.805 143,-597 137.563,-590.114 133.425,-581.557 130.364,-573.481"/><polygon fill="#000" stroke="#000" points="133.678 -572.355 127.149 -564.011 127.049 -574.605 133.678 -572.355"/><text x="166" y="-585.8" font-family="Times,serif" font-size="14" text-anchor="middle">PInvoke</text></g><g id="edge7" class="edge"><title>LINUX_LIBWRP-&gt;LINUX_CSPROJ</title><path fill="none" stroke="#000" stroke-dasharray="5 2" d="M197.687,-614.95C202.365,-587.528 207.746,-534.4 189,-495 187.171,-491.157 184.703,-487.562 181.885,-484.251"/><polygon fill="#000" stroke="#000" points="184.319 -481.734 174.812 -477.058 179.328 -486.642 184.319 -481.734"/><text x="223.5" y="-542.3" font-family="Times,serif" font-size="14" text-anchor="middle">Content</text></g><g id="edge10" class="edge"><title>LINUX_LIBWRP-&gt;LINUX_NUPKG</title><path fill="none" stroke="#000" stroke-dasharray="5 2" d="M214.142,-614.716C253.702,-577.245 340.365,-487.055 371,-390 376.084,-373.894 379.555,-366.562 371,-352 358.533,-330.779 336.774,-315.696 315.05,-305.219"/><polygon fill="#000" stroke="#000" points="316.322 -301.953 305.77 -301.007 313.429 -308.327 316.322 -301.953"/><text x="361" y="-455.3" font-family="Times,serif" font-size="14" text-anchor="middle">pack</text></g><g id="node8" class="node"><title>LINUX_DLL</title><polygon fill="#9400d3" stroke="#000" points="362 -390 136 -390 136 -386 132 -386 132 -382 136 -382 136 -360 132 -360 132 -356 136 -356 136 -352 362 -352 362 -390"/><polyline fill="none" stroke="#000" points="136 -386 140 -386 140 -382 136 -382"/><polyline fill="none" stroke="#000" points="136 -360 140 -360 140 -356 136 -356"/><text x="249" y="-374.8" font-family="Times,serif" font-size="14" text-anchor="middle">Google.OrTools.dll</text><text x="249" y="-359.8" font-family="Times,serif" font-size="14" text-anchor="middle">runtimes/linux-x64/lib/netstandard2.0/</text></g><g id="edge8" class="edge"><title>LINUX_CSPROJ-&gt;LINUX_DLL</title><path fill="none" stroke="#000" stroke-width="2" d="M169.236,-440.597C183.852,-428.027 203.802,-410.87 220.094,-396.859"/><polygon fill="#000" stroke="#000" stroke-width="2" points="222.458 -399.442 227.758 -390.268 217.894 -394.135 222.458 -399.442"/><text x="237" y="-411.8" font-family="Times,serif" font-size="14" text-anchor="middle">dotnet build</text></g><g id="edge12" class="edge"><title>LINUX_CSPROJ-&gt;LINUX_NUPKG</title><path fill="none" stroke="#000" stroke-width="2" d="M118.003,-440.966C84.882,-420.505 40.0522,-384.823 63,-352 66.8483,-346.496 135.309,-322.372 188.065,-304.412"/><polygon fill="#000" stroke="#000" stroke-width="2" points="189.369 -307.665 197.713 -301.136 187.119 -301.037 189.369 -307.665"/><text x="95" y="-367.3" font-family="Times,serif" font-size="14" text-anchor="middle">dotnet pack</text></g><g id="node10" class="node"><title>FOO_REF</title><polygon fill="#9400d3" stroke="#000" points="156.5 -228 33.5 -228 33.5 -224 29.5 -224 29.5 -220 33.5 -220 33.5 -198 29.5 -198 29.5 -194 33.5 -194 33.5 -190 156.5 -190 156.5 -228"/><polyline fill="none" stroke="#000" points="33.5 -224 37.5 -224 37.5 -220 33.5 -220"/><polyline fill="none" stroke="#000" points="33.5 -198 37.5 -198 37.5 -194 33.5 -194"/><text x="95" y="-212.8" font-family="Times,serif" font-size="14" text-anchor="middle">Google.OrTools.dll</text><text x="95" y="-197.8" font-family="Times,serif" font-size="14" text-anchor="middle">ref/netstandard2.0/</text></g><g id="edge16" class="edge"><title>LINUX_CSPROJ-&gt;FOO_REF</title><path fill="none" stroke="#000" stroke-width="2" d="M100.539,-440.937C90.7526,-436.103 81.0192,-430.159 73,-423 41.0429,-394.473 42.2899,-376.373 36,-334 30.6141,-297.717 53.014,-260.256 71.7459,-236.139"/><polygon fill="#000" stroke="#000" stroke-width="2" points="74.606 -238.168 78.167 -228.189 69.161 -233.77 74.606 -238.168"/><text x="69" y="-322.8" font-family="Times,serif" font-size="14" text-anchor="middle">dotnet build</text></g><g id="edge11" class="edge"><title>LINUX_DLL-&gt;LINUX_NUPKG</title><path fill="none" stroke="#000" stroke-dasharray="5 2" d="M249,-351.762C249,-339.934 249,-324.316 249,-311.055"/><polygon fill="#000" stroke="#000" points="252.5 -311.042 249 -301.042 245.5 -311.042 252.5 -311.042"/><text x="262" y="-322.8" font-family="Times,serif" font-size="14" text-anchor="middle">pack</text></g><g id="edge22" class="edge"><title>LINUX_NUPKG-&gt;FOO_REF</title></g><g id="node11" class="node"><title>FOO_CSPROJ</title><polygon fill="#9400d3" stroke="#000" points="271 -139 135 -139 135 -103 277 -103 277 -133 271 -139"/><polyline fill="none" stroke="#000" points="271 -139 271 -133"/><polyline fill="none" stroke="#000" points="277 -133 271 -133"/><text x="206" y="-117.3" font-family="Times,serif" font-size="14" text-anchor="middle">Google.OrTools.csproj</text></g><g id="edge21" class="edge"><title>LINUX_NUPKG-&gt;FOO_CSPROJ</title><path fill="none" stroke="#000" stroke-dasharray="5 2" d="M235.033,-264.607C227.741,-254.524 219.435,-241.236 215,-228 206.366,-202.233 204.684,-171.068 204.815,-149.223"/><polygon fill="#000" stroke="#000" points="208.318 -149.085 205.011 -139.019 201.319 -148.95 208.318 -149.085"/><text x="265" y="-205.3" font-family="Times,serif" font-size="14" text-anchor="middle">PackageReference</text></g><g id="node12" class="node"><title>FOO_NUPKG</title><polygon fill="#9400d3" stroke="#000" points="277.5 -52 274.5 -56 253.5 -56 250.5 -52 134.5 -52 134.5 -16 277.5 -16 277.5 -52"/><text x="206" y="-30.3" font-family="Times,serif" font-size="14" text-anchor="middle">Google.OrTools.nupkg</text></g><g id="edge19" class="edge"><title>LINUX_NUPKG-&gt;FOO_NUPKG</title><path fill="none" stroke="#000" stroke-dasharray="5 2" d="M280.375,-264.903C293.65,-255.845 307.709,-243.386 315,-228 322.232,-212.738 317.705,-206.671 315,-190 305.972,-134.367 311.253,-112.293 274,-70 269.853,-65.2922 264.921,-61.1299 259.634,-57.4721"/><polygon fill="#000" stroke="#000" points="261.431 -54.468 251.096 -52.134 257.719 -60.403 261.431 -54.468"/><text x="348.5" y="-160.8" font-family="Times,serif" font-size="14" text-anchor="middle">dependencies</text></g><g id="edge17" class="edge"><title>FOO_REF-&gt;FOO_CSPROJ</title><path fill="none" stroke="#000" stroke-dasharray="5 2" d="M114.294,-189.838C125.315,-179.772 139.575,-167.257 153,-157 158.416,-152.862 164.306,-148.682 170.126,-144.721"/><polygon fill="#000" stroke="#000" points="172.165 -147.568 178.54 -139.105 168.279 -141.746 172.165 -147.568"/><text x="174.5" y="-160.8" font-family="Times,serif" font-size="14" text-anchor="middle">Content</text></g><g id="edge20" class="edge"><title>FOO_REF-&gt;FOO_NUPKG</title><path fill="none" stroke="#000" stroke-dasharray="5 2" d="M91.1234,-189.896C87.4002,-167.792 84.3856,-130.02 100,-103 111.716,-82.726 132.181,-67.5141 152.024,-56.6772"/><polygon fill="#000" stroke="#000" points="153.788 -59.705 161.064 -52.003 150.574 -53.487 153.788 -59.705"/><text x="113" y="-117.3" font-family="Times,serif" font-size="14" text-anchor="middle">pack</text></g><g id="edge18" class="edge"><title>FOO_CSPROJ-&gt;FOO_NUPKG</title><path fill="none" stroke="#000" stroke-width="2" d="M206,-102.799C206,-91.1626 206,-75.5479 206,-62.2368"/><polygon fill="#000" stroke="#000" stroke-width="2" points="209.5 -62.175 206 -52.175 202.5 -62.175 209.5 -62.175"/><text x="238" y="-73.8" font-family="Times,serif" font-size="14" text-anchor="middle">dotnet pack</text></g></g></svg>